<svg id="visual" viewBox="0 0 900 600" width="900" height="600" xmlns="http://www.w3.org/2000/svg" xmlns:xlink="http://www.w3.org/1999/xlink" version="1.1"><rect x="0" y="0" width="900" height="600" fill="#FFFFFF"></rect><path d="M0 532L30 527.8C60 523.7 120 515.3 180 513.2C240 511 300 515 360 517.7C420 520.3 480 521.7 540 526.5C600 531.3 660 539.7 720 542.5C780 545.3 840 542.7 870 541.3L900 540L900 601L870 601C840 601 780 601 720 601C660 601 600 601 540 601C480 601 420 601 360 601C300 601 240 601 180 601C120 601 60 601 30 601L0 601Z" fill="#707c34"></path><path d="M0 565L30 561C60 557 120 549 180 545.5C240 542 300 543 360 546.7C420 550.3 480 556.7 540 563.7C600 570.7 660 578.3 720 578.2C780 578 840 570 870 566L900 562L900 601L870 601C840 601 780 601 720 601C660 601 600 601 540 601C480 601 420 601 360 601C300 601 240 601 180 601C120 601 60 601 30 601L0 601Z" fill="#b8bc7c"></path></svg>